<svg xmlns="http://www.w3.org/2000/svg" width="1000" height="1000" viewBox="0 0 500 500" version="1.1"><path d="M 183.476 179.828 L 185.451 182.156 170.715 181.861 L 155.979 181.566 153.336 184.210 C 150.914 186.631, 150.710 187.458, 150.904 194.082 C 151.051 199.137, 150.722 201.560, 149.807 202.140 C 148.808 202.774, 148.795 202.973, 149.750 202.985 C 150.438 202.993, 151 203.860, 151 204.911 C 151 205.962, 152.385 207.987, 154.077 209.411 C 157.094 211.950, 157.448 212, 172.512 212 C 180.959 212, 189.001 211.570, 190.383 211.045 C 195.011 209.285, 196.265 205.923, 196.080 195.767 C 195.891 185.422, 195.089 183.823, 189.129 181.911 C 187.133 181.271, 184.600 180.017, 183.500 179.124 C 181.504 177.503, 181.504 177.505, 183.476 179.828 M 198.252 185.500 C 198.263 187.700, 198.468 188.482, 198.707 187.238 C 198.946 185.994, 198.937 184.194, 198.687 183.238 C 198.437 182.282, 198.241 183.300, 198.252 185.500 M 159.008 185.893 C 155.623 186.835, 154.032 190.410, 154.015 197.115 C 154.004 201.297, 154.529 203.403, 156.073 205.365 C 158.145 208, 158.146 208, 172.962 208 C 192.145 208, 192.213 207.957, 191.796 196 L 191.500 187.500 188 186.306 C 184.260 185.031, 163.185 184.730, 159.008 185.893 M 158.903 192.097 C 157.063 193.937, 157 194.369, 158.291 196.323 C 161.113 200.595, 166.562 198.853, 165.827 193.914 C 165.332 190.591, 161.432 189.568, 158.903 192.097 M 181.571 191.571 C 180.707 192.436, 180 193.754, 180 194.500 C 180 196.176, 182.726 199.005, 184.321 198.985 C 187.730 198.940, 189.443 195.077, 187.368 192.115 C 185.607 189.600, 183.720 189.423, 181.571 191.571 M 160 194.427 C 160 195.354, 160.855 196, 162.083 196 C 164.520 196, 164.176 193.663, 161.667 193.177 C 160.680 192.985, 160 193.495, 160 194.427 M 183 194.500 C 183 195.325, 183.675 196, 184.500 196 C 185.325 196, 186 195.325, 186 194.500 C 186 193.675, 185.325 193, 184.500 193 C 183.675 193, 183 193.675, 183 194.500 M 168 198.500 C 168 199.633, 169.222 200, 173 200 C 176.778 200, 178 199.633, 178 198.500 C 178 197.367, 176.778 197, 173 197 C 169.222 197, 168 197.367, 168 198.500 M 136.667 216.667 C 136.300 217.033, 136 218.833, 136 220.667 C 136 224, 136 224, 131 224 C 126.111 224, 126 224.067, 126 227 C 126 229.933, 126.111 230, 131 230 C 134.778 230, 136 230.367, 136 231.500 C 136 232.633, 134.778 233, 131 233 C 126.111 233, 126 233.067, 126 236 C 126 238.933, 126.111 239, 131 239 C 135.333 239, 136 239.267, 136 241 C 136 242.733, 135.333 243, 131 243 C 126.111 243, 126 243.067, 126 246 C 126 248.933, 126.111 249, 131 249 C 134.778 249, 136 249.367, 136 250.500 C 136 251.633, 134.778 252, 131 252 C 126.111 252, 126 252.067, 126 255 C 126 257.932, 126.113 258, 130.981 258 L 135.962 258 136.231 280.750 L 136.500 303.500 139 303.500 L 141.500 303.500 141.761 259.750 L 142.021 216 139.677 216 C 138.388 216, 137.033 216.300, 136.667 216.667 M 145.239 259.750 L 145.500 303.500 151.500 303.500 L 157.500 303.500 157.773 285.250 L 158.045 267 172.023 267 L 186 267 186 284.941 C 186 294.809, 186.338 303.083, 186.750 303.328 C 187.162 303.573, 191.887 303.538, 197.250 303.250 L 207 302.727 207 269.423 C 207 251.105, 206.662 235.935, 206.250 235.711 C 205.838 235.487, 201.113 235.514, 195.750 235.771 L 186 236.239 186 244.119 L 186 252 172 252 L 158 252 158 234 L 158 216 151.489 216 L 144.979 216 145.239 259.750 M 291.232 238 C 291.232 239.925, 291.438 240.713, 291.689 239.750 C 291.941 238.787, 291.941 237.213, 291.689 236.250 C 291.438 235.287, 291.232 236.075, 291.232 238 M 273 241.617 C 278.871 242.363, 286.777 242.442, 286.348 241.750 C 286.092 241.338, 282.421 241.067, 278.191 241.150 C 273.961 241.232, 271.625 241.443, 273 241.617 M 291.345 244.543 C 291.019 245.392, 291.034 246.367, 291.376 246.710 C 291.719 247.053, 292 246.600, 292 245.704 C 292 244.340, 293.504 244.021, 301.250 243.745 L 310.500 243.415 301.219 243.208 C 293.645 243.038, 291.828 243.284, 291.345 244.543 M 296.250 252.735 C 298.863 252.941, 303.137 252.941, 305.750 252.735 C 308.363 252.529, 306.225 252.360, 301 252.360 C 295.775 252.360, 293.637 252.529, 296.250 252.735 M 308.250 258.689 C 309.212 258.941, 310.788 258.941, 311.750 258.689 C 312.712 258.438, 311.925 258.232, 310 258.232 C 308.075 258.232, 307.288 258.438, 308.250 258.689 M 227.750 264.737 C 230.637 264.939, 235.363 264.939, 238.250 264.737 C 241.137 264.535, 238.775 264.370, 233 264.370 C 227.225 264.370, 224.863 264.535, 227.750 264.737 M 291.232 273 C 291.232 274.925, 291.438 275.712, 291.689 274.750 C 291.941 273.788, 291.941 272.212, 291.689 271.250 C 291.438 270.288, 291.232 271.075, 291.232 273 M 296.250 278.735 C 298.863 278.941, 303.137 278.941, 305.750 278.735 C 308.363 278.529, 306.225 278.360, 301 278.360 C 295.775 278.360, 293.637 278.529, 296.250 278.735 M 305.250 284.689 C 306.212 284.941, 307.788 284.941, 308.750 284.689 C 309.712 284.438, 308.925 284.232, 307 284.232 C 305.075 284.232, 304.288 284.438, 305.250 284.689 M 301.750 288.746 C 307.387 288.924, 316.613 288.924, 322.250 288.746 C 327.887 288.568, 323.275 288.422, 312 288.422 C 300.725 288.422, 296.113 288.568, 301.750 288.746 M 291.252 293.500 C 291.263 295.700, 291.468 296.482, 291.707 295.238 C 291.946 293.994, 291.937 292.194, 291.687 291.238 C 291.437 290.282, 291.241 291.300, 291.252 293.500 M 291.873 303.276 C 292.301 303.702, 300.042 303.926, 309.076 303.773 L 325.500 303.495 308.297 302.997 C 298.836 302.724, 291.445 302.849, 291.873 303.276" stroke="none" fill="#ea7d3c" fill-rule="evenodd"/><path d="M 171.667 170.667 C 171.300 171.033, 171 172.158, 171 173.167 C 171 174.175, 170.360 175, 169.577 175 C 167.915 175, 162 179.753, 162 181.089 C 162 181.590, 167.263 182, 173.696 182 L 185.392 182 182 178.500 C 180.134 176.575, 177.796 175, 176.804 175 C 175.546 175, 175 174.243, 175 172.500 C 175 170.147, 173.185 169.149, 171.667 170.667 M 242.485 176.250 C 241.902 177.859, 236.213 202.187, 234.078 212.199 C 233.175 216.433, 232.113 220.221, 231.718 220.615 C 231.323 221.010, 231 222.464, 231 223.846 C 231 225.227, 230.556 227.740, 230.012 229.429 C 228.865 232.996, 223.424 255.855, 222.497 261 L 221.867 264.500 232.527 264.184 L 243.188 263.868 242.520 267.184 C 242.153 269.008, 240.516 276.125, 238.883 283 C 237.250 289.875, 235.241 298.425, 234.420 302 C 232.395 310.812, 231.436 314.546, 229.565 320.904 C 228.690 323.876, 228.125 326.458, 228.308 326.641 C 228.491 326.824, 231.026 323.492, 233.941 319.237 C 239.862 310.593, 262.670 277.007, 265 273.501 C 267.172 270.231, 275.742 257.956, 281.250 250.223 C 283.863 246.556, 286 243.205, 286 242.777 C 286 242.350, 279.925 242, 272.500 242 C 264.449 242, 259 241.609, 259 241.030 C 259 240.497, 259.964 238.360, 261.141 236.280 C 262.319 234.201, 264.400 230.475, 265.765 228 C 267.130 225.525, 269.036 222.150, 270 220.500 C 272.565 216.110, 276.556 208.849, 286.763 190 C 288.699 186.425, 290.863 182.824, 291.572 181.998 C 292.281 181.172, 293.331 179.260, 293.906 177.748 L 294.950 175 268.944 175 C 249.047 175, 242.831 175.294, 242.485 176.250 M 147.275 183.750 C 147.335 187.463, 146.901 192.163, 146.310 194.195 C 145.114 198.309, 146.720 202, 149.707 202 C 151.099 202, 151.221 200.767, 150.672 192.250 C 150.321 186.806, 150.451 181.852, 150.965 181.034 C 152.007 179.374, 150.533 177, 148.460 177 C 147.517 177, 147.195 178.835, 147.275 183.750 M 195.857 178.250 C 195.661 178.938, 195.641 184.590, 195.813 190.811 C 196.090 200.785, 196.326 202.084, 197.813 201.800 C 198.824 201.608, 199.882 199.936, 200.454 197.627 C 201.213 194.561, 201.060 193.170, 199.704 190.807 C 197.748 187.398, 197.480 182.920, 199.133 181.267 C 199.756 180.644, 199.995 179.429, 199.664 178.567 C 198.946 176.697, 196.362 176.481, 195.857 178.250 M 159.008 185.893 C 155.623 186.835, 154.032 190.410, 154.015 197.115 C 154.004 201.297, 154.529 203.403, 156.073 205.365 C 158.145 208, 158.146 208, 172.962 208 C 192.145 208, 192.213 207.957, 191.796 196 L 191.500 187.500 188 186.306 C 184.260 185.031, 163.185 184.730, 159.008 185.893 M 158.903 192.097 C 157.063 193.937, 157 194.369, 158.291 196.323 C 161.113 200.595, 166.562 198.853, 165.827 193.914 C 165.332 190.591, 161.432 189.568, 158.903 192.097 M 181.571 191.571 C 180.707 192.436, 180 193.754, 180 194.500 C 180 196.176, 182.726 199.005, 184.321 198.985 C 187.730 198.940, 189.443 195.077, 187.368 192.115 C 185.607 189.600, 183.720 189.423, 181.571 191.571 M 160 194.427 C 160 195.354, 160.855 196, 162.083 196 C 164.520 196, 164.176 193.663, 161.667 193.177 C 160.680 192.985, 160 193.495, 160 194.427 M 183 194.500 C 183 195.325, 183.675 196, 184.500 196 C 185.325 196, 186 195.325, 186 194.500 C 186 193.675, 185.325 193, 184.500 193 C 183.675 193, 183 193.675, 183 194.500 M 168 198.500 C 168 199.633, 169.222 200, 173 200 C 176.778 200, 178 199.633, 178 198.500 C 178 197.367, 176.778 197, 173 197 C 169.222 197, 168 197.367, 168 198.500 M 186.415 217.362 C 186.127 218.111, 186.029 221.374, 186.196 224.612 L 186.500 230.500 204.601 230.772 L 222.702 231.044 224.339 224.408 C 225.240 220.758, 225.731 217.373, 225.429 216.886 C 225.128 216.399, 216.344 216, 205.910 216 C 190.822 216, 186.830 216.279, 186.415 217.362 M 278.316 219.693 C 277.152 221.787, 275.278 225.160, 274.151 227.189 L 272.103 230.878 305.301 231.206 C 342.729 231.575, 343.491 231.714, 351.337 239.629 C 362.599 250.991, 362.716 268.292, 351.611 280.011 C 344.471 287.546, 337.882 288.986, 310.500 288.994 L 291.500 289 291.588 295.750 L 291.675 302.500 316.643 302.500 L 341.611 302.500 349.154 298.771 C 361.046 292.890, 369.813 282.626, 372.940 270.923 C 374.167 266.329, 373.976 253.225, 372.598 247.524 C 369.417 234.361, 354.499 220.655, 340.128 217.692 C 337.583 217.167, 323.110 216.546, 307.966 216.312 L 280.432 215.887 278.316 219.693 M 292 238 L 292 241 307.042 241 C 320.701 241, 322.281 241.184, 324.230 243 C 326.962 245.545, 329.205 245.536, 331.527 242.970 C 334.276 239.933, 332.532 235.605, 328.397 235.199 C 326.535 235.016, 324.824 235.507, 324.042 236.449 C 322.226 238.637, 310 238.682, 310 236.500 C 310 235.278, 308.333 235, 301 235 L 292 235 292 238 M 326.667 238.667 C 325.516 239.817, 325.938 241, 327.500 241 C 328.325 241, 329 240.325, 329 239.500 C 329 237.938, 327.817 237.516, 326.667 238.667 M 291.649 246.233 C 291.328 247.461, 291.388 248.769, 291.783 249.141 C 292.177 249.512, 298.125 249.970, 305 250.158 C 316.947 250.485, 317.500 250.412, 317.500 248.500 C 317.500 246.803, 316.931 246.544, 313.750 246.793 C 310.910 247.015, 310 246.712, 310 245.543 C 310 244.268, 308.457 244, 301.117 244 C 292.766 244, 292.198 244.134, 291.649 246.233 M 327.500 253 C 325.983 254.676, 324.420 255, 317.845 255 C 313.282 255, 310 254.582, 310 254 C 310 253.405, 306.239 253, 300.717 253 L 291.434 253 291.565 255.750 L 291.696 258.500 308.837 258.140 C 323.436 257.833, 326.064 258.003, 326.558 259.291 C 328.120 263.360, 336 261.141, 336 256.632 C 336 254.065, 333.185 251, 330.826 251 C 329.992 251, 328.495 251.900, 327.500 253 M 330 256.500 C 330 257.325, 330.402 258, 330.893 258 C 331.384 258, 332.045 257.325, 332.362 256.500 C 332.712 255.586, 332.363 255, 331.469 255 C 330.661 255, 330 255.675, 330 256.500 M 292 264 L 292 267 302.500 267 C 311.373 267, 313 267.243, 313 268.570 C 313 270.762, 317.381 270.016, 317.813 267.750 C 318.087 266.315, 317.413 266, 314.073 266 C 310.395 266, 310 265.758, 310 263.500 C 310 261.019, 309.933 261, 301 261 L 292 261 292 264 M 292 273 L 292 276 307 276 C 320.667 276, 322.178 276.178, 324 278 C 326.402 280.402, 329.288 280.569, 331.429 278.429 C 333.516 276.341, 333.416 273.686, 331.171 271.655 C 328.725 269.441, 326.088 269.568, 323.471 272.027 C 321.617 273.769, 320.516 273.961, 315.657 273.389 C 311.875 272.945, 310 272.273, 310 271.362 C 310 270.313, 307.929 270, 301 270 L 292 270 292 273 M 326.667 273.667 C 325.516 274.817, 325.938 276, 327.500 276 C 328.325 276, 329 275.325, 329 274.500 C 329 272.938, 327.817 272.516, 326.667 273.667 M 291.424 281.750 C 291.765 285.020, 294.101 285.543, 303.746 284.511 C 309.511 283.893, 310 283.652, 310 281.420 C 310 279.031, 309.879 279, 300.568 279 L 291.136 279 291.424 281.750" stroke="none" fill="#103858" fill-rule="evenodd"/></svg>